
<svg xmlns="http://www.w3.org/2000/svg" version="1.1" xmlns:xlink="http://www.w3.org/1999/xlink" preserveAspectRatio="none" x="0px" y="0px" width="100px" height="100px" viewBox="0 0 100 100">
<defs>
<g id="Layer0_0_FILL">
<path fill="#9E9E9E" stroke="none" d="
M 45.95 47.2
Q 45.8 43.2 43.9 40.7 42.05 38.2 39.05 36.85 36.15 35.45 32.85 34.7 29.6 33.95 26.7 33.4 23.75 32.85 22 32 20.1 31.15 20.05 29.55 20.05 28.35 21.5 27.55 23 26.65 25.8 26.65 28.9 26.75 30.2 28 31.55 29.3 31.55 31.15
L 31.55 31.4 44.7 31.4 44.7 30.6
Q 44.55 25.95 42 22.95 39.4 19.95 35.05 18.5 30.65 17.1 25.35 17.1 20.05 17 15.6 18.45 11.15 19.9 8.4 22.95 5.7 26.05 5.6 31.15 5.7 35.4 7.55 37.95 9.4 40.65 12.35 42.1 15.25 43.55 18.6 44.35 21.85 45.15 24.8 45.75 27.75 46.35 29.6 47.15 31.5 47.95 31.55 49.55 31.5 50.9 30.5 51.45 29.45 52.1 28.1 52.35 26.65 52.45 25.35 52.45 23.15 52.45 21.55 52.05 19.95 51.65 19.1 50.35 18.3 49.3 18.3 46.85
L 4.9 46.85
Q 5 53.1 7.8 56.5 10.6 59.9 15.55 61.3 20.4 62.6 26.65 62.55 32.1 62.55 36.5 60.95 40.85 59.4 43.35 56.05 45.9 52.65 45.95 47.2
M 95 82
L 95 70 5 70 5 82 95 82
M 92.35 25.6
Q 89.75 21.4 85.05 19.2 80.25 17.1 73.9 17.1 62.65 17.1 56.85 22.8 51.15 28.55 51.1 39.8 51.15 51.05 56.85 56.75 62.65 62.55 73.9 62.55 84 62.5 89.4 57.75 94.95 53.05 95 43.95
L 81.95 43.95
Q 81.95 47.8 79.9 49.85 77.8 51.95 73.65 51.95 69.4 51.95 67.45 49.2 65.5 46.4 65.5 41.85
L 65.5 37.75
Q 65.5 33.2 67.45 30.45 69.35 27.65 73.8 27.6 77.6 27.65 79.6 29.85 81.5 32.15 81.5 35.9
L 95 35.9
Q 94.95 29.8 92.35 25.6 Z"/>
</g>
</defs>

<g transform="matrix( 1, 0, 0, 1, 0,0) ">
<use xlink:href="#Layer0_0_FILL"/>
</g>
</svg>
