
<svg xmlns="http://www.w3.org/2000/svg" version="1.1" xmlns:xlink="http://www.w3.org/1999/xlink" preserveAspectRatio="none" x="0px" y="0px" width="100px" height="100px" viewBox="0 0 100 100">
<defs>
<path id="Layer0_0_1_STROKES" stroke="#9E9E9E" stroke-width="10" stroke-linejoin="round" stroke-linecap="round" fill="none" d="
M 85 50
L 85 60
Q 85 65 80 65
L 65 65
Q 60 65 60 60
L 60 20
Q 60 15 65 15
L 80 15
Q 85 15 85 20
L 85 30
M 15 50
L 15 60
Q 15 65 20 65
L 35 65
Q 40 65 40 60
L 40 50 15 30 15 20
Q 15 15 20 15
L 35 15
Q 40 15 40 20
L 40 30
M 85 85
L 15 85"/>
</defs>

<g transform="matrix( 1, 0, 0, 1, 0,0) ">
<use xlink:href="#Layer0_0_1_STROKES"/>
</g>
</svg>
