
<svg xmlns="http://www.w3.org/2000/svg" version="1.1" xmlns:xlink="http://www.w3.org/1999/xlink" preserveAspectRatio="none" x="0px" y="0px" width="100px" height="100px" viewBox="0 0 100 100">
<defs>
<path id="Layer0_0_1_STROKES" stroke="#9E9E9E" stroke-width="10" stroke-linejoin="round" stroke-linecap="round" fill="none" d="
M 25 30
Q 25 19.65 32.3 12.3 39.65 5 50 5 60.35 5 67.65 12.3 75 19.65 75 30 75 34.95 73.05 39.45 71.25 43.55 67.65 47.65 65.85 49.7 62.1 52.4 57.95 55.4 56.45 56.85 50.15 62.95 50 75"/>

<path id="Layer0_0_2_STROKES" stroke="#9E9E9E" stroke-width="5" stroke-linejoin="round" stroke-linecap="round" fill="none" d="
M 52.5 95
Q 52.5 96.05 51.75 96.75 51.05 97.5 50 97.5 48.95 97.5 48.2 96.75 47.5 96.05 47.5 95 47.5 93.95 48.2 93.2 48.95 92.5 50 92.5 51.05 92.5 51.75 93.2 52.5 93.95 52.5 95 Z"/>
</defs>

<g transform="matrix( 1, 0, 0, 1, 0,0) ">
<use xlink:href="#Layer0_0_1_STROKES"/>

<use xlink:href="#Layer0_0_2_STROKES"/>
</g>
</svg>
