
<svg xmlns="http://www.w3.org/2000/svg" version="1.1" xmlns:xlink="http://www.w3.org/1999/xlink" preserveAspectRatio="none" x="0px" y="0px" width="100px" height="100px" viewBox="0 0 100 100">
<defs>
<path id="Layer1_0_1_STROKES" stroke="#9E9E9E" stroke-width="10" stroke-linejoin="round" stroke-linecap="round" fill="none" d="
M 95 50
Q 95 56.2 90.55 60.55 86.2 65 80 65 73.75 65 69.4 60.55 65 56.2 65 50 65 43.75 69.4 39.4 73.75 35 80 35 86.2 35 90.55 39.4 95 43.75 95 50 Z
M 35 20
Q 35 26.2 30.55 30.55 26.2 35 20 35 13.75 35 9.4 30.55 5 26.2 5 20 5 13.75 9.4 9.4 13.75 5 20 5 26.2 5 30.55 9.4 35 13.75 35 20 Z
M 35 80
Q 35 86.2 30.55 90.55 26.2 95 20 95 13.75 95 9.4 90.55 5 86.2 5 80 5 73.75 9.4 69.4 13.75 65 20 65 26.2 65 30.55 69.4 35 73.75 35 80 Z"/>

<path id="Layer0_0_1_STROKES" stroke="#9E9E9E" stroke-width="10" stroke-linejoin="round" stroke-linecap="round" fill="none" d="
M 34 27
L 65.875 42.925
M 65.725 57.15
L 34.175 72.925"/>
</defs>

<g transform="matrix( 1, 0, 0, 1, 0,0) ">
<use xlink:href="#Layer1_0_1_STROKES"/>
</g>

<g transform="matrix( 1, 0, 0, 1, 0,0) ">
<use xlink:href="#Layer0_0_1_STROKES"/>
</g>
</svg>
