
<svg xmlns="http://www.w3.org/2000/svg" version="1.1" xmlns:xlink="http://www.w3.org/1999/xlink" preserveAspectRatio="none" x="0px" y="0px" width="100px" height="100px" viewBox="0 0 100 100">
<defs>
<path id="Layer2_0_1_STROKES" stroke="#9E9E9E" stroke-width="10" stroke-linejoin="round" stroke-linecap="round" fill="none" d="
M 50 35
L 50 40
M 75 35
L 75 40
M 25 35
L 25 40
M 25 55
L 25 60
M 25 75
L 25 80
M 50 75
L 50 80
M 75 55
L 75 60
M 75 75
L 75 80
M 50 55
L 50 60"/>

<path id="Layer1_0_1_STROKES" stroke="#9E9E9E" stroke-width="10" stroke-linejoin="round" stroke-linecap="round" fill="none" d="
M 50 5
L 50 15
M 75 5
L 75 15
M 25 5
L 25 15"/>

<path id="Layer0_0_1_STROKES" stroke="#9E9E9E" stroke-width="5" stroke-linejoin="round" stroke-linecap="round" fill="none" d="
M 2.5 17.5
L 97.5 17.5 97.5 97.5 2.5 97.5 2.5 17.5 Z"/>
</defs>

<g transform="matrix( 1, 0, 0, 1, 0,0) ">
<use xlink:href="#Layer2_0_1_STROKES"/>
</g>

<g transform="matrix( 1, 0, 0, 1, 0,0) ">
<use xlink:href="#Layer1_0_1_STROKES"/>
</g>

<g transform="matrix( 1, 0, 0, 1, 0,0) ">
<use xlink:href="#Layer0_0_1_STROKES"/>
</g>
</svg>
