<?xml version="1.0" standalone="no"?>
<!DOCTYPE svg PUBLIC "-//W3C//DTD SVG 20010904//EN"
 "http://www.w3.org/TR/2001/REC-SVG-20010904/DTD/svg10.dtd">
<svg version="1.0" xmlns="http://www.w3.org/2000/svg"
 width="700.000000pt" height="700.000000pt" viewBox="0 0 700.000000 700.000000"
 preserveAspectRatio="xMidYMid meet">
<metadata>
Created by potrace 1.11, written by Peter Selinger 2001-2013
</metadata>
<g transform="translate(0.000000,700.000000) scale(0.100000,-0.100000)"
fill="#000000" stroke="none">
<path d="M1657 5804 c-1 -1 -42 -4 -92 -8 -331 -21 -643 -123 -836 -273 -61
-47 -187 -184 -218 -236 -72 -123 -113 -282 -115 -447 -1 -152 11 -229 54
-347 24 -66 33 -81 96 -168 180 -248 435 -368 1064 -500 69 -14 134 -28 144
-30 146 -32 295 -81 361 -120 122 -73 122 -217 0 -286 -83 -47 -149 -58 -324
-58 -274 2 -376 34 -449 142 -42 61 -58 119 -61 232 -1 20 -7 20 -368 18 -203
-2 -414 -3 -470 -3 l-101 0 3 -57 c5 -109 17 -188 41 -283 82 -325 301 -541
667 -659 111 -36 317 -73 484 -88 163 -14 562 -8 648 11 11 2 41 7 67 10 73
10 230 53 321 88 378 145 598 426 634 811 14 147 6 258 -27 376 -47 166 -155
309 -316 418 -100 68 -368 180 -495 207 -13 3 -73 17 -134 31 -60 14 -119 27
-130 29 -440 87 -578 130 -653 207 -18 19 -35 43 -37 54 -13 58 -12 77 8 117
43 84 186 139 362 140 185 0 290 -38 360 -129 31 -41 69 -134 64 -159 -8 -43
-26 -41 462 -41 l461 0 -6 86 c-11 143 -30 226 -77 329 -119 262 -431 475
-788 537 -19 3 -37 7 -40 9 -3 2 -31 7 -62 10 -31 4 -67 9 -79 11 -46 9 -415
26 -423 19z"/>
<path d="M5077 5804 c-1 -1 -45 -5 -97 -8 -52 -4 -108 -9 -125 -12 -16 -2 -46
-6 -65 -8 -19 -3 -69 -12 -110 -20 -593 -125 -944 -484 -1061 -1086 -19 -102
-22 -123 -34 -260 -8 -85 -8 -332 -1 -390 3 -25 8 -70 11 -100 4 -48 21 -150
40 -244 22 -108 104 -313 171 -426 65 -111 214 -273 308 -337 23 -16 43 -31
46 -34 3 -4 52 -32 110 -62 92 -49 270 -119 333 -131 12 -3 55 -12 94 -20 40
-9 98 -18 130 -22 31 -3 66 -8 77 -11 82 -18 557 -4 672 21 16 4 38 8 49 10
276 54 503 168 681 341 81 79 174 197 174 221 0 7 3 14 8 16 17 7 84 176 111
280 32 122 44 210 45 328 l1 75 -452 0 c-249 0 -453 0 -454 0 0 0 -3 -29 -5
-65 -17 -236 -135 -399 -332 -460 -91 -29 -130 -34 -248 -33 -153 1 -254 30
-346 100 -108 83 -190 256 -214 450 -10 78 -11 469 -3 557 21 206 81 354 191
465 42 44 154 97 241 115 107 22 249 14 353 -19 193 -63 303 -228 328 -495 3
-30 6 -55 6 -55 50 0 869 4 899 4 l43 1 -7 103 c-5 87 -14 145 -39 272 -9 47
-59 185 -88 245 -134 273 -382 489 -675 588 -134 45 -157 51 -313 77 -107 18
-441 39 -453 29z"/>
<path d="M350 1680 l0 -420 3150 0 3150 0 0 420 0 420 -3150 0 -3150 0 0 -420z"/>
</g>
</svg>
